<svg width="389" height="182" viewBox="0 0 389 182" fill="none" xmlns="http://www.w3.org/2000/svg">
<path fill-rule="evenodd" clip-rule="evenodd" d="M144.94 111.5C144.94 111.5 149.807 125.73 152.241 128.667C154.675 131.604 176.578 140.439 152.241 177.874H127.904C127.904 177.874 133.216 168.172 144.94 162.37C149.807 159.963 152.241 143.111 140.072 135.889C127.904 128.667 106 116.63 106 107" fill="#F99595"/>
<path d="M144.94 111.5C144.94 111.5 149.807 125.73 152.241 128.667C154.675 131.604 176.578 140.439 152.241 177.874H127.904C127.904 177.874 133.217 168.172 144.94 162.37C149.807 159.963 152.241 143.111 140.072 135.889C127.904 128.667 106 116.63 106 107" stroke="black" stroke-width="5" stroke-miterlimit="1" stroke-linecap="round" stroke-linejoin="round"/>
<path fill-rule="evenodd" clip-rule="evenodd" d="M87 96C87 96 74.3178 97.4902 61.436 111.648C56.5685 116.993 54.1626 91.8148 78.5 87" fill="#F99595"/>
<path d="M87 96C87 96 74.3178 97.4902 61.436 111.648C56.5685 116.993 54.1626 91.8148 78.5 87" stroke="black" stroke-width="5" stroke-miterlimit="1" stroke-linecap="round" stroke-linejoin="round"/>
<path fill-rule="evenodd" clip-rule="evenodd" d="M88.2901 96.2974C88.2901 96.2974 76.4864 92.5299 76.4864 72.4665C76.4864 72.4665 68.9662 63.641 54.4733 70.0591C39.9804 76.4797 25.3779 81.2945 32.6792 66.85V66.9801L41.6207 69.101L43.8865 59.753L52.8281 64.8615L52.6601 54.9358L61.6017 60.0419C73.4881 46.0139 54.5828 49.9982 54.5828 49.9982L47.2816 42.776L44.8479 52.4056L37.5466 45.1834L35.1129 54.813L27.8117 47.5908L25.3779 57.2204L18.0767 49.9982L15.643 59.6278C15.643 64.4426 13.696 58.6649 10.7755 54.813C3.4743 45.1834 -10.2057 30.9123 35.1129 18.7019C35.1129 18.7019 42.1951 4.44762 54.4733 9.07225C66.7515 13.6969 77.8785 -15.2474 100.824 23.5167C110.8 40.3686 110.603 46.2908 122.727 45.1834C138.447 43.7461 164.101 36.8441 220.077 42.776C288.222 49.9982 388.737 45.4674 385.571 52.4056C379.365 66.005 298.895 45.3716 198.173 98.1463" fill="#FBC5C5"/>
<path d="M88.2901 96.2974C88.2901 96.2974 76.4864 92.5299 76.4864 72.4665C76.4864 72.4665 68.9662 63.641 54.4733 70.0591C39.9804 76.4797 25.3779 81.2945 32.6792 66.85V66.9801L41.6207 69.101L43.8865 59.753L52.8281 64.8615L52.6601 54.9358L61.6017 60.0419C73.4881 46.0139 54.5828 49.9982 54.5828 49.9982L47.2816 42.776L44.8479 52.4056L37.5466 45.1834L35.1129 54.813L27.8117 47.5908L25.3779 57.2204L18.0767 49.9982L15.643 59.6278C15.643 64.4426 13.696 58.6649 10.7755 54.813C3.4743 45.1834 -10.2057 30.9123 35.1129 18.7019C35.1129 18.7019 42.1951 4.44762 54.4733 9.07225C66.7515 13.6969 77.8785 -15.2474 100.824 23.5167C110.8 40.3686 110.603 46.2908 122.727 45.1834C138.447 43.7461 164.101 36.8441 220.077 42.776C288.222 49.9982 388.737 45.4674 385.571 52.4056C379.365 66.005 298.895 45.3716 198.173 98.1463C181.895 103.372 163.312 102.173 161.395 103.372C126.071 125.446 98.9916 109.76 88.2901 96.2974Z" fill="#FBC5C5"/>
<path d="M88.2901 96.2974C88.2901 96.2974 76.4864 92.5299 76.4864 72.4665C76.4864 72.4665 68.9662 63.641 54.4733 70.0591C39.9804 76.4797 25.3779 81.2945 32.6792 66.85V66.9801L41.6207 69.101L43.8865 59.753L52.8281 64.8615L52.6601 54.9358L61.6017 60.0419C73.4881 46.0139 54.5828 49.9982 54.5828 49.9982L47.2816 42.776L44.8479 52.4056L37.5466 45.1834L35.1129 54.813L27.8117 47.5908L25.3779 57.2204L18.0767 49.9982L15.643 59.6278C15.643 64.4426 13.696 58.6649 10.7755 54.813C3.4743 45.1834 -10.2057 30.9123 35.1129 18.7019C35.1129 18.7019 42.1951 4.44762 54.4733 9.07225C66.7515 13.6969 77.8785 -15.2474 100.824 23.5167C110.8 40.3686 110.603 46.2908 122.727 45.1834C138.447 43.7461 164.101 36.8441 220.077 42.776C288.222 49.9982 388.737 45.4674 385.571 52.4056C379.365 66.005 298.895 45.3716 198.173 98.1463C181.895 103.372 163.312 102.173 161.395 103.372C126.071 125.446 98.9916 109.76 88.2901 96.2974Z" stroke="black" stroke-width="5" stroke-miterlimit="1" stroke-linecap="round" stroke-linejoin="round"/>
<path fill-rule="evenodd" clip-rule="evenodd" d="M200 91.5C200 91.5 203.714 98.9597 196.413 113.404C196.413 113.404 206.147 125.441 215.882 132.663C225.617 139.886 245.087 139.886 235.352 154.33C225.617 168.774 224 170.778 224 178C224 180.407 196.413 178 196.413 178C196.413 178 192.324 175.997 201.669 171.182C208.581 167.619 211.015 163.96 211.015 163.96C211.015 163.96 223.962 149.515 201.669 139.886C179.376 130.256 151.434 107.55 149 91.5" fill="#FBC5C5"/>
<path d="M200 91.5C200 91.5 203.714 98.9597 196.413 113.404C196.413 113.404 206.148 125.441 215.882 132.663C225.617 139.886 245.087 139.886 235.352 154.33C225.617 168.774 224 170.778 224 178C224 180.407 196.413 178 196.413 178C196.413 178 192.324 175.997 201.669 171.182C208.581 167.619 211.015 163.96 211.015 163.96C211.015 163.96 223.962 149.515 201.669 139.886C179.376 130.256 151.434 107.55 149 91.5" stroke="black" stroke-width="5" stroke-miterlimit="1" stroke-linecap="round" stroke-linejoin="round"/>
<path fill-rule="evenodd" clip-rule="evenodd" d="M106.362 97.7555C106.362 97.7555 103.471 119.639 86.8926 127.848C82.0251 130.255 82.0251 118.218 84.4588 115.811C86.8926 113.404 91.7601 112.602 91.7601 94.1443C91.7601 90.1312 96.6275 75.6868 101.495 75.6868" fill="#FBC5C5"/>
<path d="M106.362 97.7555C106.362 97.7555 103.471 119.639 86.8926 127.848C82.0251 130.255 82.0251 118.218 84.4588 115.811C86.8926 113.404 91.7601 112.602 91.7601 94.1443C91.7601 90.1312 96.6275 75.6868 101.495 75.6868" stroke="black" stroke-width="5" stroke-miterlimit="1" stroke-linecap="round" stroke-linejoin="round"/>
<path d="M56.5 34C58.9853 34 61 31.9853 61 29.5C61 27.0147 58.9853 25 56.5 25C54.0147 25 52 27.0147 52 29.5C52 31.9853 54.0147 34 56.5 34Z" fill="black" stroke="black" stroke-width="2" stroke-miterlimit="1" stroke-linecap="round" stroke-linejoin="round"/>
<path d="M60 18L46 25" stroke="black" stroke-width="4" stroke-miterlimit="1" stroke-linecap="round" stroke-linejoin="round"/>
</svg>
